<svg width="667" height="667" viewBox="0 0 667 667" fill="none" xmlns="http://www.w3.org/2000/svg">
<path d="M557.22 133.4C499.469 77.9758 417.193 93.1878 371.963 135.098C338.929 165.706 286.9 210.228 246.619 208.288C206.736 206.366 161.076 178.656 111.473 199.954C62.512 220.978 49.1306 290.48 71.2613 343.622C93.4866 396.994 174.527 440.306 272.653 480.729C313.956 497.744 352.096 503.344 386.471 502.974C386.471 502.974 475.235 502.057 508.596 480.705C534.724 463.984 545.848 453.004 574.087 410.373C595.459 378.112 609.716 332.74 611.324 288.804C613.289 235.112 600.371 174.813 557.22 133.4Z" fill="#007BFF"/>
<g opacity="0.800003">
<g opacity="0.800003">
<path opacity="0.800003" d="M557.22 133.4C499.469 77.9758 417.193 93.1878 371.963 135.098C338.929 165.706 286.9 210.228 246.619 208.288C206.736 206.366 161.076 178.656 111.473 199.954C62.512 220.978 49.1306 290.48 71.2613 343.622C93.4866 396.994 174.527 440.306 272.653 480.729C313.956 497.744 352.096 503.344 386.471 502.974C386.471 502.974 475.235 502.057 508.596 480.705C534.724 463.984 545.848 453.004 574.087 410.373C595.459 378.112 609.716 332.74 611.324 288.804C613.289 235.112 600.371 174.813 557.22 133.4Z" fill="white"/>
</g>
</g>
<path d="M574.087 535.633C574.087 543.827 462.366 550.47 324.551 550.47C186.735 550.47 75.0139 543.827 75.0139 535.633C75.0139 527.439 186.735 520.797 324.551 520.797C462.366 520.797 574.087 527.439 574.087 535.633Z" fill="#007BFF"/>
<g opacity="0.600006">
<g opacity="0.600006">
<path opacity="0.600006" d="M574.087 535.633C574.087 543.827 462.366 550.47 324.551 550.47C186.735 550.47 75.0139 543.827 75.0139 535.633C75.0139 527.439 186.735 520.797 324.551 520.797C462.366 520.797 574.087 527.439 574.087 535.633Z" fill="white"/>
</g>
</g>
<path d="M550.224 509.033H106.809V235.159C106.809 227.461 113.051 221.219 120.751 221.219H536.283C543.981 221.219 550.224 227.461 550.224 235.159V509.033Z" fill="#007BFF"/>
<path d="M550.224 509.033H106.809V235.159C106.809 227.461 113.051 221.219 120.751 221.219H536.283C543.981 221.219 550.224 227.461 550.224 235.159V509.033Z" stroke="#1A2E35" stroke-width="1.228" stroke-miterlimit="10"/>
<path d="M532.235 473.956H124.799V243.705H532.235V473.956Z" fill="white"/>
<g opacity="0.399994">
<g opacity="0.399994">
<path opacity="0.399994" d="M532.234 473.956V277.416L195.209 473.956H532.234Z" fill="#007BFF"/>
</g>
</g>
<path d="M532.235 473.956H124.799V243.705H532.235V473.956Z" stroke="#1A2E35" stroke-width="0.92" stroke-miterlimit="10"/>
<path d="M481.901 510.193H177.164V495.177H481.901V510.193Z" fill="#007BFF" stroke="#1A2E35" stroke-width="0.922667" stroke-miterlimit="10"/>
<path d="M481.901 510.193H177.164V502.407H481.901V510.193Z" fill="#007BFF" stroke="#1A2E35" stroke-width="0.922667" stroke-miterlimit="10"/>
<path d="M70.9512 519.09C70.9512 519.09 75.9552 525.207 90.9712 530.211H568.095C568.095 530.211 579.218 527.431 584.223 519.646L70.9512 519.09Z" fill="#007BFF"/>
<path d="M70.9512 519.09C70.9512 519.09 75.9552 525.207 90.9712 530.211H568.095C568.095 530.211 579.218 527.431 584.223 519.646L70.9512 519.09Z" stroke="#1A2E35" stroke-width="1.228" stroke-miterlimit="10"/>
<path d="M581.703 519.827H73.531C71.5444 519.827 69.9324 518.215 69.9324 516.228V511.732C69.9324 509.744 71.5444 508.134 73.531 508.134H581.703C583.69 508.134 585.3 509.744 585.3 511.732V516.228C585.3 518.215 583.69 519.827 581.703 519.827Z" fill="#007BFF"/>
<path d="M581.703 519.827H73.531C71.5444 519.827 69.9324 518.215 69.9324 516.228V511.732C69.9324 509.744 71.5444 508.134 73.531 508.134H581.703C583.69 508.134 585.3 509.744 585.3 511.732V516.228C585.3 518.215 583.69 519.827 581.703 519.827Z" stroke="#1A2E35" stroke-width="1.228" stroke-miterlimit="10"/>
<path d="M332.313 229.923C332.313 227.773 330.57 226.031 328.421 226.031C326.27 226.031 324.528 227.773 324.528 229.923C324.528 232.072 326.27 233.815 328.421 233.815C330.57 233.815 332.313 232.072 332.313 229.923Z" fill="#1A2E35"/>
<path d="M276.982 226.03H179.666C178.592 226.03 177.721 225.159 177.721 224.085C177.721 223.009 178.592 222.138 179.666 222.138H276.982C278.057 222.138 278.929 223.009 278.929 224.085C278.929 225.159 278.057 226.03 276.982 226.03Z" fill="#007BFF"/>
<path d="M276.982 226.03H179.666C178.592 226.03 177.721 225.159 177.721 224.085C177.721 223.009 178.592 222.138 179.666 222.138H276.982C278.057 222.138 278.929 223.009 278.929 224.085C278.929 225.159 278.057 226.03 276.982 226.03Z" stroke="#1A2E35" stroke-width="0.922667" stroke-miterlimit="10"/>
<path d="M475.506 226.03H378.192C377.116 226.03 376.245 225.159 376.245 224.085C376.245 223.009 377.116 222.138 378.192 222.138H475.506C476.582 222.138 477.453 223.009 477.453 224.085C477.453 225.159 476.582 226.03 475.506 226.03Z" fill="#007BFF"/>
<path d="M475.506 226.03H378.192C377.116 226.03 376.245 225.159 376.245 224.085C376.245 223.009 377.116 222.138 378.192 222.138H475.506C476.582 222.138 477.453 223.009 477.453 224.085C477.453 225.159 476.582 226.03 475.506 226.03Z" stroke="#1A2E35" stroke-width="0.922667" stroke-miterlimit="10"/>
<path d="M546.408 302.214C545.794 302.214 545.296 301.716 545.296 301.102V268.849C545.296 268.236 545.794 267.737 546.408 267.737C547.022 267.737 547.521 268.236 547.521 268.849V301.102C547.521 301.716 547.022 302.214 546.408 302.214Z" fill="#007BFF"/>
<path d="M546.408 302.214C545.794 302.214 545.296 301.716 545.296 301.102V268.849C545.296 268.236 545.794 267.737 546.408 267.737C547.022 267.737 547.521 268.236 547.521 268.849V301.102C547.521 301.716 547.022 302.214 546.408 302.214Z" stroke="#1A2E35" stroke-width="0.922667" stroke-miterlimit="10"/>
<path d="M110.99 302.214C110.376 302.214 109.878 301.716 109.878 301.102V268.849C109.878 268.236 110.376 267.737 110.99 267.737C111.604 267.737 112.102 268.236 112.102 268.849V301.102C112.102 301.716 111.604 302.214 110.99 302.214Z" fill="#007BFF"/>
<path d="M110.99 302.214C110.376 302.214 109.878 301.716 109.878 301.102V268.849C109.878 268.236 110.376 267.737 110.99 267.737C111.604 267.737 112.102 268.236 112.102 268.849V301.102C112.102 301.716 111.604 302.214 110.99 302.214Z" stroke="#1A2E35" stroke-width="0.922667" stroke-miterlimit="10"/>
<path d="M415.741 310.606C417.646 309.206 419.682 306.893 419.714 304.391C419.748 301.942 417.818 299.782 415.273 300.006C411.744 300.317 408.573 305.866 407.87 308.951C407.81 309.218 407.338 313.498 407.402 313.485C407.408 313.485 413.505 312.25 415.741 310.606Z" fill="#1A2E35"/>
<path d="M385.225 377.518C384.78 375.576 382.837 374.238 380.868 374.906C378.136 375.832 376.697 380.832 376.736 383.408C376.737 383.573 376.985 385.518 377.135 386.509C376.832 385.74 376.531 384.978 376.228 384.172C375.785 383.017 375.356 381.781 374.932 380.588C374.735 379.96 374.536 379.325 374.335 378.685C374.119 378.044 373.991 377.406 373.812 376.757C373.571 375.801 373.369 374.802 373.168 373.806C374.371 373.428 377.883 372.252 379.283 371.021C380.729 369.752 382.216 367.732 382.067 365.701C381.92 363.712 380.203 362.097 378.156 362.457C375.315 362.958 373.135 367.682 372.783 370.234C372.771 370.318 372.753 370.865 372.737 371.514C372.569 370.536 372.397 369.56 372.26 368.562C371.869 365.734 371.561 362.84 371.239 359.942C371.172 359.338 371.096 358.736 371.027 358.133C372.04 357.818 375.857 356.578 377.324 355.29C378.769 354.02 380.257 352 380.108 349.969C379.961 347.981 378.244 346.365 376.197 346.726C373.356 347.228 371.175 351.952 370.823 354.504C370.809 354.596 370.791 355.249 370.773 355.98C370.576 354.408 370.36 352.842 370.096 351.297C369.64 348.593 369.043 345.954 368.263 343.444C368.621 343.337 373.125 341.974 374.755 340.542C376.2 339.27 377.689 337.252 377.539 335.22C377.393 333.232 375.675 331.617 373.628 331.977C370.787 332.478 368.607 337.204 368.255 339.756C368.231 339.936 368.173 342.3 368.181 343.145C368.172 343.116 368.165 343.084 368.156 343.053C367.312 340.426 366.184 338.022 365.001 335.793C363.825 333.569 362.529 331.574 361.289 329.77C360.052 327.962 358.809 326.384 357.699 324.996C357.092 324.249 356.523 323.577 355.984 322.957C355.996 322.957 356.045 322.958 356.045 322.958C356.099 322.96 355.076 319.606 354.985 319.404C353.957 317.041 350.581 313.082 347.709 313.368C345.643 313.573 344.424 315.593 344.821 317.548C345.227 319.544 347.205 321.085 348.94 321.917C350.719 322.769 354.8 322.928 355.812 322.953C356.359 323.609 356.933 324.317 357.553 325.112C358.632 326.521 359.835 328.121 361.027 329.948C361.345 330.434 361.669 330.969 361.991 331.484C361.268 330.73 360.26 329.712 360.152 329.624C358.151 328.001 353.331 326.044 350.915 327.62C349.173 328.756 349.024 331.109 350.276 332.66C351.555 334.245 354.023 334.702 355.945 334.641C357.952 334.577 361.731 332.78 362.553 332.378C363.251 333.526 363.939 334.722 364.585 336.012C365.7 338.228 366.773 340.648 367.544 343.245C367.587 343.389 367.615 343.545 367.656 343.69C367.364 343.256 365.585 340.99 365.441 340.848C363.631 339.016 359.055 336.541 356.479 337.841C354.625 338.778 354.217 341.102 355.292 342.781C356.389 344.497 358.791 345.221 360.709 345.373C362.92 345.546 367.509 343.857 367.681 343.793C368.372 346.234 368.896 348.794 369.283 351.425C369.564 353.33 369.772 355.273 369.963 357.222C369.568 356.668 367.913 354.564 367.777 354.426C365.967 352.594 361.389 350.118 358.813 351.42C356.96 352.357 356.552 354.68 357.627 356.36C358.724 358.076 361.127 358.8 363.044 358.95C365.201 359.12 369.607 357.521 369.976 357.385C370.063 358.27 370.152 359.156 370.231 360.044C370.489 362.944 370.737 365.853 371.069 368.716C371.183 369.708 371.333 370.681 371.477 371.657C370.861 370.842 369.709 369.381 369.596 369.268C367.785 367.436 363.208 364.96 360.633 366.261C358.779 367.2 358.371 369.521 359.445 371.201C360.543 372.917 362.945 373.642 364.864 373.792C366.791 373.944 370.523 372.68 371.569 372.309C371.823 373.93 372.111 375.533 372.469 377.097C372.639 377.768 372.768 378.465 372.968 379.1C373.153 379.744 373.339 380.381 373.523 381.013C373.948 382.306 374.339 383.509 374.765 384.704C374.976 385.308 375.191 385.874 375.403 386.458C374.901 385.54 374.083 384.097 373.992 383.974C372.48 381.888 368.331 378.749 365.588 379.645C363.613 380.29 362.86 382.525 363.667 384.348C364.492 386.21 366.756 387.29 368.629 387.729C370.696 388.213 375.143 387.348 375.687 387.238C376.215 388.668 376.743 390.053 377.26 391.342C378.889 395.422 380.401 398.757 381.492 401.078C382.583 403.396 383.267 404.712 383.267 404.712L383.272 404.721L383.28 404.737C383.549 405.228 384.165 405.408 384.656 405.138C385.145 404.869 385.325 404.253 385.057 403.764C385.057 403.764 384.368 402.506 383.237 400.233C382.109 397.964 380.54 394.693 378.84 390.69C378.347 389.537 377.844 388.305 377.339 387.036C377.849 386.792 381.919 384.824 383.28 383.201C384.516 381.725 385.681 379.504 385.225 377.518Z" fill="#1A2E35"/>
<path d="M362.674 331.841C362.677 331.839 366.986 329.175 368.229 327.289C369.288 325.682 370.19 323.341 369.509 321.422C368.842 319.542 366.758 318.438 364.88 319.327C362.272 320.561 361.418 325.693 361.753 328.247C361.781 328.469 362.63 331.869 362.674 331.841Z" fill="#1A2E35"/>
<path d="M428.289 310.606C430.525 312.25 436.624 313.485 436.628 313.485C436.692 313.498 436.221 309.218 436.16 308.951C435.458 305.866 432.286 300.317 428.757 300.006C426.213 299.782 424.282 301.942 424.316 304.391C424.348 306.893 426.385 309.206 428.289 310.606Z" fill="#1A2E35"/>
<path d="M453.628 369.806C450.088 369.941 446.645 375.326 445.789 378.373C445.738 378.553 445.41 380.562 445.222 381.835C445.218 381.071 445.224 380.33 445.21 379.542C445.194 377.986 445.132 376.433 445.07 374.761C445.013 373.955 444.954 373.142 444.894 372.319C444.854 371.502 444.708 370.646 444.616 369.801C444.364 367.845 444.012 365.875 443.614 363.899C444.997 363.881 449.824 363.745 451.973 362.754C454.118 361.763 456.577 359.905 457.11 357.461C457.633 355.067 456.176 352.565 453.638 352.275C450.117 351.873 445.898 356.673 444.593 359.555C444.51 359.735 443.805 361.909 443.441 363.111C443.193 361.923 442.952 360.738 442.66 359.547C441.824 356.107 440.869 352.651 439.933 349.198C439.645 348.141 439.372 347.085 439.093 346.027C439.849 346.023 445.401 345.961 447.748 344.878C449.893 343.889 452.353 342.03 452.885 339.586C453.409 337.193 451.95 334.69 449.414 334.399C445.893 333.997 441.674 338.798 440.368 341.679C440.269 341.897 439.26 345.026 439.042 345.834C438.43 343.506 437.841 341.179 437.356 338.863C436.68 335.667 436.193 332.497 435.949 329.389C436.366 329.389 442.225 329.361 444.656 328.239C446.801 327.249 449.261 325.39 449.793 322.946C450.317 320.554 448.858 318.051 446.322 317.761C442.801 317.358 438.582 322.159 437.274 325.041C437.172 325.267 436.088 328.635 435.934 329.258C435.921 329.074 435.885 328.883 435.874 328.699C435.656 325.378 435.862 322.133 436.204 319.105C436.397 317.343 436.682 315.673 436.996 314.053C438.15 314.167 443.246 314.622 445.574 313.845C447.816 313.097 450.464 311.519 451.262 309.149C452.045 306.827 450.87 304.179 448.38 303.613C444.926 302.826 440.205 307.134 438.59 309.855C438.502 310.003 437.774 311.607 437.264 312.782C437.416 312.053 437.56 311.298 437.72 310.602C438.316 307.989 439.021 305.633 439.662 303.551C440.038 302.371 440.4 301.31 440.749 300.322C441.908 299.859 446.542 297.941 448.226 296.202C449.872 294.505 451.493 291.885 451.11 289.413C450.736 286.993 448.473 285.183 446.002 285.827C442.573 286.721 440.369 292.721 440.189 295.879C440.173 296.153 440.422 300.45 440.482 300.427C440.482 300.427 440.508 300.418 440.552 300.401C440.197 301.345 439.826 302.361 439.445 303.479C438.757 305.551 437.997 307.898 437.342 310.509C436.682 313.115 436.038 315.966 435.63 319.03C435.217 322.101 434.94 325.353 435.088 328.739C435.089 328.777 435.097 328.817 435.098 328.855C434.748 327.878 433.674 325.178 433.569 324.981C432.077 322.19 427.552 317.675 424.065 318.307C423.234 318.458 422.552 318.858 422.016 319.39C421.478 318.858 420.797 318.458 419.965 318.307C416.478 317.675 411.954 322.19 410.462 324.981C410.356 325.178 409.284 327.878 408.933 328.855C408.934 328.817 408.941 328.777 408.942 328.739C409.09 325.353 408.813 322.101 408.4 319.03C407.992 315.966 407.348 313.115 406.688 310.509C406.034 307.898 405.273 305.551 404.585 303.479C404.204 302.361 403.833 301.345 403.478 300.401C403.524 300.418 403.548 300.427 403.548 300.427C403.609 300.45 403.857 296.153 403.841 295.879C403.661 292.721 401.458 286.721 398.029 285.827C395.557 285.183 393.296 286.993 392.92 289.413C392.537 291.885 394.16 294.505 395.805 296.202C397.489 297.941 402.122 299.859 403.281 300.322C403.63 301.31 403.992 302.371 404.368 303.551C405.009 305.633 405.714 307.989 406.31 310.602C406.47 311.298 406.614 312.053 406.768 312.782C406.256 311.607 405.529 310.003 405.441 309.855C403.825 307.134 399.105 302.826 395.65 303.613C393.16 304.179 391.986 306.827 392.768 309.149C393.566 311.519 396.214 313.097 398.457 313.845C400.784 314.622 405.881 314.167 407.034 314.053C407.348 315.673 407.633 317.343 407.828 319.105C408.169 322.133 408.376 325.378 408.156 328.699C408.145 328.883 408.109 329.074 408.096 329.258C407.942 328.635 406.858 325.267 406.756 325.041C405.449 322.159 401.23 317.358 397.709 317.761C395.172 318.051 393.714 320.554 394.237 322.946C394.77 325.39 397.229 327.249 399.376 328.239C401.806 329.361 407.665 329.389 408.082 329.389C407.838 332.497 407.352 335.667 406.676 338.863C406.189 341.179 405.6 343.506 404.989 345.834C404.77 345.026 403.762 341.897 403.662 341.679C402.357 338.798 398.138 333.997 394.616 334.399C392.08 334.69 390.622 337.193 391.145 339.586C391.678 342.03 394.137 343.889 396.282 344.878C398.629 345.961 404.181 346.023 404.937 346.027C404.658 347.085 404.385 348.141 404.098 349.198C403.161 352.651 402.208 356.107 401.37 359.547C401.08 360.738 400.837 361.923 400.589 363.111C400.225 361.909 399.52 359.735 399.438 359.555C398.132 356.673 393.913 351.873 390.392 352.275C387.856 352.565 386.397 355.067 386.92 357.461C387.453 359.905 389.912 361.763 392.058 362.754C394.206 363.745 399.033 363.881 400.416 363.899C400.018 365.875 399.668 367.845 399.414 369.801C399.322 370.646 399.176 371.502 399.136 372.319C399.077 373.142 399.018 373.955 398.96 374.761C398.9 376.433 398.837 377.986 398.821 379.542C398.806 380.33 398.812 381.071 398.808 381.835C398.621 380.563 398.292 378.553 398.241 378.373C397.386 375.326 393.942 369.941 390.402 369.806C387.85 369.709 386.03 371.961 386.184 374.406C386.341 376.902 388.49 379.111 390.462 380.415C392.588 381.822 397.936 382.718 398.801 382.855C398.801 384.726 398.82 386.55 398.868 388.254C399.006 393.649 399.328 398.135 399.597 401.275C399.866 404.407 400.094 406.215 400.094 406.215L400.097 406.23C400.098 406.237 400.098 406.245 400.1 406.251C400.201 406.931 400.833 407.401 401.513 407.299C402.193 407.198 402.662 406.565 402.561 405.886C402.561 405.886 402.302 404.145 401.968 401.045C401.634 397.949 401.22 393.513 400.965 388.175C400.888 386.635 400.833 385.003 400.792 383.326C401.672 383.243 407.06 382.699 409.27 381.437C411.322 380.265 413.612 378.201 413.933 375.719C414.246 373.29 412.577 370.922 410.025 370.853C406.482 370.757 402.694 375.903 401.642 378.889C401.574 379.079 401.033 381.427 400.781 382.631C400.761 381.617 400.736 380.61 400.732 379.554C400.713 378.034 400.745 376.427 400.766 374.87C400.806 374.063 400.846 373.249 400.888 372.425C400.912 371.594 401.037 370.805 401.106 369.981C401.236 368.777 401.43 367.541 401.62 366.307C403.212 366.383 407.737 366.514 409.853 365.702C412.058 364.854 414.634 363.162 415.326 360.757C416.004 358.402 414.713 355.81 412.201 355.354C408.713 354.722 404.19 359.237 402.698 362.027C402.649 362.118 402.396 362.739 402.1 363.482C402.324 362.282 402.542 361.085 402.809 359.878C403.564 356.453 404.44 352.987 405.302 349.51C405.484 348.786 405.652 348.059 405.828 347.335C407.144 347.406 412.06 347.601 414.294 346.742C416.501 345.893 419.076 344.201 419.768 341.797C420.446 339.443 419.156 336.85 416.644 336.394C413.156 335.762 408.632 340.278 407.14 343.067C407.086 343.167 406.785 343.91 406.454 344.745C406.896 342.85 407.313 340.955 407.668 339.062C408.293 335.753 408.729 332.458 408.9 329.235C409.64 329.279 415.201 329.583 417.616 328.655C419.165 328.059 420.881 327.041 422.016 325.659C423.149 327.041 424.866 328.059 426.414 328.655C428.83 329.583 434.39 329.279 435.13 329.235C435.301 332.458 435.737 335.753 436.364 339.062C436.717 340.955 437.134 342.85 437.576 344.745C437.246 343.91 436.944 343.167 436.89 343.067C435.398 340.278 430.874 335.762 427.386 336.394C424.876 336.85 423.584 339.443 424.262 341.797C424.954 344.201 427.53 345.893 429.736 346.742C431.97 347.601 436.888 347.406 438.202 347.335C438.378 348.059 438.548 348.786 438.728 349.51C439.592 352.987 440.468 356.453 441.221 359.878C441.489 361.085 441.708 362.282 441.93 363.482C441.636 362.739 441.381 362.118 441.333 362.027C439.841 359.237 435.317 354.722 431.829 355.354C429.318 355.81 428.026 358.402 428.705 360.757C429.397 363.162 431.972 364.854 434.177 365.702C436.293 366.514 440.82 366.383 442.41 366.307C442.601 367.541 442.794 368.777 442.925 369.981C442.993 370.805 443.118 371.594 443.144 372.425C443.184 373.249 443.225 374.063 443.266 374.87C443.285 376.427 443.317 378.034 443.298 379.554C443.294 380.61 443.27 381.617 443.25 382.631C442.998 381.427 442.456 379.079 442.388 378.889C441.336 375.903 437.548 370.757 434.005 370.853C431.453 370.922 429.784 373.29 430.098 375.719C430.418 378.201 432.708 380.265 434.76 381.437C436.97 382.699 442.358 383.243 443.238 383.326C443.198 385.003 443.142 386.635 443.065 388.175C442.81 393.513 442.396 397.949 442.062 401.045C441.728 404.145 441.47 405.886 441.47 405.886C441.369 406.565 441.837 407.198 442.517 407.299C443.197 407.401 443.83 406.931 443.932 406.251C443.933 406.245 443.933 406.237 443.933 406.23L443.936 406.215C443.936 406.215 444.164 404.407 444.433 401.275C444.702 398.135 445.024 393.649 445.162 388.254C445.212 386.55 445.229 384.726 445.229 382.855C446.096 382.718 451.442 381.822 453.569 380.415C455.541 379.111 457.689 376.902 457.846 374.406C458 371.961 456.18 369.709 453.628 369.806Z" fill="#1A2E35"/>
<path d="M134.921 437.641C134.921 437.641 135.142 446.691 136.687 451.547C138.231 456.403 140.661 461.261 140.661 461.261C140.661 461.261 134.921 464.35 132.271 464.571C129.622 464.791 126.09 452.873 126.09 444.705C126.09 436.537 129.182 434.109 134.921 437.641Z" fill="white"/>
<path d="M134.921 437.641C134.921 437.641 135.142 446.691 136.687 451.547C138.231 456.403 140.661 461.261 140.661 461.261C140.661 461.261 134.921 464.35 132.271 464.571C129.622 464.791 126.09 452.873 126.09 444.705C126.09 436.537 129.182 434.109 134.921 437.641Z" stroke="#1A2E35" stroke-width="0.646667" stroke-miterlimit="10" stroke-linecap="round" stroke-linejoin="round"/>
<path d="M118.94 413.921C118.94 413.921 128.299 413.579 131.829 416.227C135.361 418.878 136.687 430.577 137.791 435.213L138.893 439.847C138.893 439.847 133.155 442.055 130.947 442.277C128.74 442.498 127.856 442.718 127.856 442.718C127.856 442.718 124.987 426.603 121.676 421.967C118.364 417.333 116.157 415.125 116.157 415.125C116.157 415.125 114.659 413.379 118.94 413.921Z" fill="white"/>
<path d="M118.94 413.921C118.94 413.921 128.299 413.579 131.829 416.227C135.361 418.878 136.687 430.577 137.791 435.213L138.893 439.847C138.893 439.847 133.155 442.055 130.947 442.277C128.74 442.498 127.856 442.718 127.856 442.718C127.856 442.718 124.987 426.603 121.676 421.967C118.364 417.333 116.157 415.125 116.157 415.125C116.157 415.125 114.659 413.379 118.94 413.921V413.921Z" stroke="#1A2E35" stroke-width="0.646667" stroke-miterlimit="10" stroke-linecap="round" stroke-linejoin="round"/>
<path d="M111.301 399.673C111.301 399.673 110.417 403.645 107.769 408.061C105.12 412.476 104.017 415.567 95.8495 415.787C87.6815 416.008 83.4881 422.631 79.9561 442.497C76.4241 462.364 74.4375 484.217 80.3975 498.124C86.3575 512.032 104.017 510.707 115.496 506.512C126.973 502.317 129.623 489.295 129.844 475.167C130.064 461.039 130.064 438.744 127.857 427.485C125.649 416.228 119.248 413.801 116.379 412.919C113.508 412.035 117.261 406.737 117.261 406.737L111.301 399.673Z" fill="white"/>
<g opacity="0.399994">
<g opacity="0.399994">
<path opacity="0.399994" d="M87.927 442.984C87.927 442.984 85.987 448.374 89.4363 452.47C92.8857 456.567 101.51 454.626 99.7857 456.567C98.0603 458.507 90.7297 460.879 89.4363 462.819C88.143 464.759 89.2203 466.268 89.2203 466.268C89.2203 466.268 82.4257 467.484 81.943 466.338C81.459 465.19 85.9163 449.12 85.9163 449.12L87.927 442.984Z" fill="#007BFF"/>
</g>
</g>
<g opacity="0.399994">
<g opacity="0.399994">
<path opacity="0.399994" d="M90.0833 472.305C90.0833 472.305 85.3393 477.479 85.5553 478.989C85.7713 480.498 90.0833 477.049 89.2206 479.205C88.3593 481.359 84.6939 484.81 83.6153 486.534C82.5366 488.259 78.2393 491.301 78.2393 491.301L76.7166 479.635L76.4233 477.595L90.0833 472.305Z" fill="#007BFF"/>
</g>
</g>
<path d="M111.301 399.673C111.301 399.673 110.417 403.645 107.769 408.061C105.12 412.476 104.017 415.567 95.8495 415.787C87.6815 416.008 83.4881 422.631 79.9561 442.497C76.4241 462.364 74.4375 484.217 80.3975 498.124C86.3575 512.032 104.017 510.707 115.496 506.512C126.973 502.317 129.623 489.295 129.844 475.167C130.064 461.039 130.064 438.744 127.857 427.485C125.649 416.228 119.248 413.801 116.379 412.919C113.508 412.035 117.261 406.737 117.261 406.737L111.301 399.673Z" stroke="#1A2E35" stroke-width="0.646667" stroke-miterlimit="10" stroke-linecap="round" stroke-linejoin="round"/>
<path d="M118.94 413.921C117.956 413.434 117.064 413.129 116.379 412.918C113.508 412.034 117.261 406.737 117.261 406.737L111.301 399.673C111.301 399.673 110.417 403.646 107.769 408.061C105.519 411.813 104.367 414.601 99.0641 415.491C100.269 417.255 101.907 420.109 102.692 423.513C104.017 429.253 106.885 438.523 112.184 436.317C117.227 434.215 121.055 422.125 118.94 413.921Z" fill="white"/>
<g opacity="0.399994">
<g opacity="0.399994">
<path opacity="0.399994" d="M105.175 415.388C103.666 416.467 101.886 417.247 100.564 417.569L99.1964 415.287C99.1964 415.287 104.703 415.968 110.21 403.304C115.716 390.643 110.21 403.304 110.21 403.304C110.21 403.304 112.226 407.364 115.2 409.372L108.624 410.213" fill="#007BFF"/>
</g>
</g>
<path d="M118.94 413.921C117.956 413.434 117.064 413.129 116.379 412.918C113.508 412.034 117.261 406.737 117.261 406.737L111.301 399.673C111.301 399.673 110.417 403.646 107.769 408.061C105.519 411.813 104.367 414.601 99.0641 415.491C100.269 417.255 101.907 420.109 102.692 423.513C104.017 429.253 106.885 438.523 112.184 436.317C117.227 434.215 121.055 422.125 118.94 413.921Z" stroke="#1A2E35" stroke-width="0.646667" stroke-miterlimit="10" stroke-linecap="round" stroke-linejoin="round"/>
<path d="M88.5436 440.934L94.8956 435.288" stroke="#1A2E35" stroke-width="0.646667" stroke-miterlimit="10" stroke-linecap="round" stroke-linejoin="round"/>
<path d="M95.8489 415.786C95.8489 415.786 97.7183 418.348 99.1303 425.758C100.542 433.169 104.777 439.874 109.012 441.286C113.246 442.698 115.364 441.286 115.364 441.286" stroke="#1A2E35" stroke-width="0.646667" stroke-miterlimit="10" stroke-linecap="round" stroke-linejoin="round"/>
<path d="M74.8782 440.289C74.8782 440.289 71.5676 469.649 71.3476 474.725C71.1262 479.802 73.1129 478.478 76.4236 477.594C79.7356 476.712 98.7182 468.324 103.133 466.778C107.549 465.233 108.212 464.792 111.742 465.233C115.274 465.674 118.806 466.116 121.014 466.116C123.221 466.116 120.793 461.04 117.482 460.156C114.17 459.273 114.392 459.493 110.638 460.377C106.886 461.261 100.926 463.909 94.5249 465.233C88.1236 466.557 82.6049 466.998 81.9422 466.337C81.2796 465.674 85.9156 446.47 85.9156 446.47L74.8782 440.289Z" fill="white"/>
<path d="M74.8782 440.289C74.8782 440.289 71.5676 469.649 71.3476 474.725C71.1262 479.802 73.1129 478.478 76.4236 477.594C79.7356 476.712 98.7182 468.324 103.133 466.778C107.549 465.233 108.212 464.792 111.742 465.233C115.274 465.674 118.806 466.116 121.014 466.116C123.221 466.116 120.793 461.04 117.482 460.156C114.17 459.273 114.392 459.493 110.638 460.377C106.886 461.261 100.926 463.909 94.5249 465.233C88.1236 466.557 82.6049 466.998 81.9422 466.337C81.2796 465.674 85.9156 446.47 85.9156 446.47L74.8782 440.289Z" stroke="#1A2E35" stroke-width="0.646667" stroke-miterlimit="10" stroke-linecap="round" stroke-linejoin="round"/>
<path d="M99.0644 415.491C99.0644 415.491 94.9657 416.008 91.6551 415.567C88.3431 415.126 82.8257 416.45 79.2937 419.98C75.7617 423.514 72.6711 434.992 71.3471 437.862C70.0217 440.731 69.5804 442.055 69.5804 442.055L85.9164 449.12L92.7591 429.694" fill="white"/>
<g opacity="0.399994">
<g opacity="0.399994">
<path opacity="0.399994" d="M98.8918 415.348C95.7798 415.874 91.9505 415.674 89.2212 415.82C85.1238 416.034 82.1065 417.328 79.0878 420.777C76.0692 424.226 69.8625 441.933 69.8625 441.933L73.6598 443.554C73.6598 443.554 77.7945 424.226 82.5372 421.209C87.2812 418.19 92.2385 417.76 96.3358 417.76C97.6465 417.76 99.1638 417.669 100.109 417.569L98.8918 415.348Z" fill="#007BFF"/>
</g>
</g>
<path d="M99.0644 415.491C99.0644 415.491 94.9657 416.008 91.6551 415.567C88.3431 415.126 82.8257 416.45 79.2937 419.98C75.7617 423.514 72.6711 434.992 71.3471 437.862C70.0217 440.731 69.5804 442.055 69.5804 442.055L85.9164 449.12L92.7591 429.694" stroke="#1A2E35" stroke-width="0.646667" stroke-miterlimit="10" stroke-linecap="round" stroke-linejoin="round"/>
<path d="M78.3092 489.281C78.3092 489.281 85.0145 483.283 89.6025 482.929" stroke="#1A2E35" stroke-width="0.646667" stroke-miterlimit="10" stroke-linecap="round" stroke-linejoin="round"/>
<path d="M90.308 480.105C90.308 480.105 84.6613 482.577 80.78 485.047" stroke="#1A2E35" stroke-width="0.646667" stroke-miterlimit="10" stroke-linecap="round" stroke-linejoin="round"/>
<path d="M131.64 393.522C129.035 403.866 122.108 411.041 116.167 409.545C110.225 408.049 107.52 398.449 110.124 388.106C112.729 377.761 119.656 370.587 125.597 372.083C131.539 373.578 134.244 383.177 131.64 393.522Z" fill="white"/>
<g opacity="0.399994">
<g opacity="0.399994">
<path opacity="0.399994" d="M115.035 409.145C114.295 407.654 113.309 404.065 114.014 401.805C115.093 398.355 120.91 394.498 120.91 394.498C120.91 394.498 118.303 395.137 115.523 395.554C112.79 395.962 109.161 396.563 109.161 396.563L110.081 403.018C111.373 405.925 112.886 408.299 115.035 409.145Z" fill="#007BFF"/>
</g>
</g>
<path d="M131.64 393.522C129.035 403.866 122.108 411.041 116.167 409.545C110.225 408.049 107.52 398.449 110.124 388.106C112.729 377.761 119.656 370.587 125.597 372.083C131.539 373.578 134.244 383.177 131.64 393.522Z" stroke="#1A2E35" stroke-width="0.646667" stroke-miterlimit="10" stroke-linecap="round" stroke-linejoin="round"/>
<g opacity="0.399994">
<g opacity="0.399994">
<path opacity="0.399994" d="M110.21 403.581C109.206 405.585 106.048 411.829 102.803 413.879C101.868 414.469 100.866 414.881 99.8269 415.165" fill="#007BFF"/>
</g>
</g>
<g opacity="0.399994">
<g opacity="0.399994">
<path opacity="0.399994" d="M115.523 436.301C115.523 436.301 116.386 448.59 115.523 451.608C114.661 454.626 111.211 454.41 112.937 456.136C114.661 457.86 118.973 460.232 118.973 460.232L121.991 463.25L122.638 458.722C122.638 458.722 120.482 459.369 118.326 451.824C116.17 444.277 115.523 436.301 115.523 436.301Z" fill="#007BFF"/>
</g>
</g>
<path d="M125.784 396.19C125.784 396.19 124.388 398.185 124.388 399.581C124.388 399.989 124.404 400.345 124.428 400.646C124.476 401.241 123.98 401.731 123.384 401.69L121.793 401.577" stroke="#1A2E35" stroke-width="0.646667" stroke-miterlimit="10" stroke-linecap="round" stroke-linejoin="round"/>
<path d="M119.001 404.768C119.001 404.768 116.607 405.168 115.809 402.374" stroke="#1A2E35" stroke-width="0.646667" stroke-miterlimit="10" stroke-linecap="round" stroke-linejoin="round"/>
<path d="M121.394 395.79L120.596 397.386C120.596 397.386 119.2 398.185 117.804 396.788" stroke="#1A2E35" stroke-width="0.646667" stroke-miterlimit="10" stroke-linecap="round" stroke-linejoin="round"/>
<path d="M127.779 398.185L126.582 399.78C126.582 399.78 124.986 399.78 124.986 398.584" stroke="#1A2E35" stroke-width="0.646667" stroke-miterlimit="10" stroke-linecap="round" stroke-linejoin="round"/>
<path d="M134.091 383.936C136.81 376.076 130.266 367.92 120.572 368.107C111.039 368.291 104.099 377.756 100.88 384.249C99.9405 385.149 96.5752 388.563 93.2005 394.375C89.2272 401.217 89.2272 405.191 86.1365 409.607C83.0458 414.02 73.9952 414.241 68.6978 419.98C63.3992 425.72 63.3992 432.343 65.8285 436.757C68.2565 441.172 69.8018 446.911 66.7112 450.885C63.6205 454.857 60.5312 460.156 62.9578 469.207C64.3338 474.332 67.9032 476.341 71.4632 477.001C71.3458 476.448 71.3045 475.709 71.3472 474.725C71.5178 470.793 73.5418 452.3 74.4458 444.159L69.5805 442.055C69.5805 442.055 70.0218 440.731 71.3472 437.861C72.6712 434.992 75.7618 423.513 79.2938 419.98C82.8258 416.449 88.3432 415.125 91.6552 415.567C94.9658 416.008 99.0645 415.491 99.0645 415.491C103.023 414.825 104.668 413.103 106.184 410.711L106.224 410.648C106.342 410.464 106.456 410.275 106.574 410.08C106.587 410.06 106.599 410.037 106.612 410.017C106.982 409.401 107.358 408.747 107.77 408.061C108.878 406.215 109.672 404.449 110.227 403.016C109.587 401.131 109.226 398.935 109.16 396.564C113.502 396.416 125.527 395.351 131.61 388.193C131.979 387.76 132.302 387.319 132.602 386.873C132.524 389.001 132.214 391.241 131.64 393.521C130.214 399.184 127.491 403.883 124.344 406.743C124.135 406.933 123.924 407.124 123.712 407.297C123.576 407.408 123.439 407.508 123.303 407.611C123.111 407.756 122.919 407.901 122.724 408.032C122.578 408.131 122.43 408.221 122.282 408.312C122.094 408.428 121.907 408.54 121.719 408.641C121.566 408.725 121.412 408.8 121.259 408.875C121.072 408.964 120.887 409.047 120.699 409.123C120.543 409.185 120.388 409.245 120.232 409.299C120.044 409.363 119.858 409.416 119.671 409.467C119.515 409.509 119.36 409.551 119.204 409.581C118.182 409.792 117.16 409.795 116.167 409.544C116.034 409.511 115.911 409.452 115.782 409.409C115.398 410.333 115.151 411.309 115.394 412.019C115.535 412.431 115.84 412.751 116.378 412.917C116.38 412.917 116.383 412.919 116.384 412.919C117.056 413.127 117.924 413.424 118.882 413.893C118.534 417.992 117.65 423.644 116.158 429.913C113.95 439.187 116.378 448.016 119.027 454.416C121.675 460.819 129.843 464.792 132.712 461.039C135.583 457.287 134.7 453.313 132.934 444.483C131.168 435.653 126.532 422.851 126.532 413.137C126.532 403.425 132.271 400.335 135.142 394.596C137.171 390.537 135.34 386.159 134.091 383.936Z" fill="#1A2E35"/>
<path d="M131.404 381.026C131.404 381.026 121.212 389.945 111.338 390.899C101.464 391.855 100.51 391.855 100.51 391.855" stroke="white" stroke-width="0.461333" stroke-miterlimit="10" stroke-linecap="round" stroke-linejoin="round"/>
<path d="M129.174 374.337C129.174 374.337 119.938 384.849 112.293 387.397C104.649 389.945 101.464 389.945 101.464 389.945" stroke="white" stroke-width="0.461333" stroke-miterlimit="10" stroke-linecap="round" stroke-linejoin="round"/>
<path d="M123.76 370.516C123.76 370.516 121.212 378.478 115.16 382.301" stroke="white" stroke-width="0.461333" stroke-miterlimit="10" stroke-linecap="round" stroke-linejoin="round"/>
<path d="M106.242 400.456C106.242 400.456 105.923 410.648 100.19 412.241C94.4568 413.833 88.0874 410.648 80.7608 414.47C73.4354 418.292 71.8434 425.936 72.4794 430.713" stroke="white" stroke-width="0.461333" stroke-miterlimit="10" stroke-linecap="round" stroke-linejoin="round"/>
<path d="M70.25 473.712C70.25 473.712 65.154 467.024 67.702 458.424C70.25 449.824 72.162 446.639 72.162 446.639" stroke="white" stroke-width="0.461333" stroke-miterlimit="10" stroke-linecap="round" stroke-linejoin="round"/>
<path d="M126.627 417.018C126.627 417.018 128.219 429.121 122.804 436.766C117.39 444.41 120.894 454.921 120.894 454.921" stroke="white" stroke-width="0.461333" stroke-miterlimit="10" stroke-linecap="round" stroke-linejoin="round"/>
<path d="M126.945 405.87C126.945 405.87 127.264 409.374 122.805 418.291C118.345 427.211 117.072 430.076 116.753 436.447" stroke="white" stroke-width="0.461333" stroke-miterlimit="10" stroke-linecap="round" stroke-linejoin="round"/>
<path d="M157.527 507.273C157.527 507.273 164.677 506.581 168.829 508.427C172.98 510.272 173.903 513.271 174.825 510.503C175.749 507.736 175.749 506.12 172.288 504.275C168.829 502.429 167.444 503.583 166.06 502.199C164.677 500.815 163.755 500.355 163.755 500.355C163.755 500.355 160.064 499.893 159.833 501.968C159.603 504.044 156.143 504.737 156.143 504.737L157.527 507.273Z" fill="white"/>
<path d="M157.527 507.273C157.527 507.273 164.677 506.581 168.829 508.427C172.98 510.272 173.903 513.271 174.825 510.503C175.749 507.736 175.749 506.12 172.288 504.275C168.829 502.429 167.444 503.583 166.06 502.199C164.677 500.815 163.755 500.355 163.755 500.355C163.755 500.355 160.064 499.893 159.833 501.968C159.603 504.044 156.143 504.737 156.143 504.737L157.527 507.273Z" stroke="#1A2E35" stroke-width="0.646667" stroke-miterlimit="10"/>
<path d="M187.457 453.092C185.029 447.574 174.906 451.364 163.176 460.819C147.99 473.056 136.186 475.9 129.808 476.402C129.81 476.335 129.814 476.268 129.816 476.199C126.505 474.647 121.86 474.59 116.225 475.492C116.056 475.236 115.881 474.984 115.716 474.726C105.121 458.17 102.25 455.299 98.7184 458.17C95.1864 461.039 91.213 465.454 92.5383 479.14C92.6397 480.192 92.8544 481.259 93.1517 482.328C86.9904 485.212 81.7477 488.706 78.2397 491.299C78.7984 493.727 79.4984 496.024 80.397 498.123C86.3397 511.988 103.908 510.714 115.389 506.55C119.153 508.498 122.982 509.822 126.533 510.264C135.625 511.4 141.776 511.068 145.37 509.691L151.477 514.679C151.477 514.679 166.045 504.304 175.537 487.97C179.265 481.554 181.829 476.238 183.61 471.942C187.392 463.407 188.676 455.86 187.457 453.092Z" fill="#1A2E35"/>
<path d="M115.716 474.725C116.992 476.719 118.399 478.628 119.881 480.445L161.28 472.943L148.224 462.497L111.259 467.901C112.576 469.859 114.049 472.121 115.716 474.725Z" fill="#007BFF"/>
<path d="M115.716 474.725C116.992 476.719 118.399 478.628 119.881 480.445L161.28 472.943L148.224 462.497L111.259 467.901C112.576 469.859 114.049 472.121 115.716 474.725Z" stroke="#1A2E35" stroke-width="0.646667" stroke-miterlimit="10" stroke-linecap="round" stroke-linejoin="round"/>
<g opacity="0.5">
<g opacity="0.5">
<path opacity="0.5" d="M115.716 474.725C116.992 476.719 118.399 478.628 119.881 480.445L161.28 472.943L148.224 462.497L111.259 467.901C112.576 469.859 114.049 472.121 115.716 474.725Z" fill="white"/>
</g>
<g opacity="0.5">
<path opacity="0.5" d="M115.716 474.725C116.992 476.719 118.399 478.628 119.881 480.445L161.28 472.943L148.224 462.497L111.259 467.901C112.576 469.859 114.049 472.121 115.716 474.725Z" stroke="#1A2E35" stroke-width="0.704" stroke-miterlimit="10" stroke-linecap="round" stroke-linejoin="round"/>
</g>
</g>
<path d="M124.948 450.169L118.497 478.685C118.951 479.281 119.411 479.868 119.881 480.445L161.28 472.943L169.487 443.1L124.948 450.169Z" fill="#007BFF"/>
<path d="M124.948 450.169L118.497 478.685C118.951 479.281 119.411 479.868 119.881 480.445L161.28 472.943L169.487 443.1L124.948 450.169Z" stroke="#1A2E35" stroke-width="0.646667" stroke-miterlimit="10" stroke-linecap="round" stroke-linejoin="round"/>
<path d="M146.066 466.751C143.749 467.502 141.286 466.307 140.565 464.082C139.844 461.857 141.14 459.445 143.457 458.694C145.774 457.943 148.237 459.138 148.958 461.363C149.678 463.589 148.384 466.002 146.066 466.751Z" fill="white"/>
<g opacity="0.5">
<g opacity="0.5">
<path opacity="0.5" d="M124.948 450.169L118.497 478.685C118.951 479.281 119.411 479.868 119.881 480.445L161.28 472.943L169.487 443.1L124.948 450.169Z" fill="white"/>
</g>
<g opacity="0.5">
<path opacity="0.5" d="M124.948 450.169L118.497 478.685C118.951 479.281 119.411 479.868 119.881 480.445L161.28 472.943L169.487 443.1L124.948 450.169Z" stroke="#1A2E35" stroke-width="0.704" stroke-miterlimit="10" stroke-linecap="round" stroke-linejoin="round"/>
</g>
</g>
<path d="M146.066 466.751C143.749 467.502 141.286 466.307 140.565 464.082C139.844 461.857 141.14 459.445 143.457 458.694C145.774 457.943 148.237 459.138 148.958 461.363C149.678 463.589 148.384 466.002 146.066 466.751Z" fill="white"/>
<path d="M146.066 466.751C143.749 467.502 141.286 466.307 140.565 464.082C139.844 461.857 141.14 459.445 143.457 458.694C145.774 457.943 148.237 459.138 148.958 461.363C149.678 463.589 148.384 466.002 146.066 466.751Z" stroke="#1A2E35" stroke-width="0.704" stroke-miterlimit="10" stroke-linecap="round" stroke-linejoin="round"/>
<path d="M143.987 507.371C143.987 507.371 138.283 511.614 135.066 513.368C131.847 515.123 130.823 514.539 127.752 517.463C124.68 520.39 122.047 522.436 121.316 523.607C120.586 524.778 119.708 525.947 119.268 523.314C118.83 520.68 120.147 517.61 122.194 516.147C124.242 514.684 127.02 514.1 127.02 512.198C127.02 510.296 128.338 508.687 129.946 508.687C131.555 508.687 132.579 510.296 135.651 508.687C138.722 507.079 140.623 503.423 140.623 503.423L143.987 507.371Z" fill="white"/>
<path d="M143.987 507.371C143.987 507.371 138.283 511.614 135.066 513.368C131.847 515.123 130.823 514.539 127.752 517.463C124.68 520.39 122.047 522.436 121.316 523.607C120.586 524.778 119.708 525.947 119.268 523.314C118.83 520.68 120.147 517.61 122.194 516.147C124.242 514.684 127.02 514.1 127.02 512.198C127.02 510.296 128.338 508.687 129.946 508.687C131.555 508.687 132.579 510.296 135.651 508.687C138.722 507.079 140.623 503.423 140.623 503.423L143.987 507.371Z" stroke="#1A2E35" stroke-width="0.646667" stroke-miterlimit="10"/>
<path d="M93.5156 483.797C93.5156 483.797 99.8222 498.881 114.358 505.737" stroke="white" stroke-width="0.461333" stroke-miterlimit="10"/>
<path d="M142.547 496.143C142.547 496.143 151.568 491.631 164.799 468.779" stroke="white" stroke-width="0.461333" stroke-miterlimit="10"/>
<path d="M118.345 479.128C118.345 479.128 127.901 493.142 139.049 497.92" stroke="white" stroke-width="0.461333" stroke-miterlimit="10"/>
<path d="M289.919 529.745H208.059C202.408 529.745 197.827 525.163 197.827 519.513V346.698C197.827 341.048 202.408 336.465 208.059 336.465H289.919C295.569 336.465 300.151 341.048 300.151 346.698V519.513C300.151 525.163 295.569 529.745 289.919 529.745Z" fill="#1A2E35"/>
<path d="M295.603 508.523H202.375V357.689H295.603V508.523Z" fill="white"/>
<g opacity="0.399994">
<g opacity="0.399994">
<path opacity="0.399994" d="M295.603 457.841L208.695 508.523H295.603V457.841Z" fill="#007BFF"/>
</g>
</g>
<path d="M295.603 508.523H202.375V357.689H295.603V508.523Z" stroke="#1A2E35" stroke-width="0.704" stroke-miterlimit="10"/>
<path d="M259.123 347.131H238.854C238.091 347.131 237.472 346.513 237.472 345.749C237.472 344.986 238.091 344.367 238.854 344.367H259.123C259.887 344.367 260.506 344.986 260.506 345.749C260.506 346.513 259.887 347.131 259.123 347.131Z" fill="#007BFF"/>
<g opacity="0.399994">
<g opacity="0.399994">
<path opacity="0.399994" d="M259.123 347.131H238.854C238.091 347.131 237.472 346.513 237.472 345.749C237.472 344.986 238.091 344.367 238.854 344.367H259.123C259.887 344.367 260.506 344.986 260.506 345.749C260.506 346.513 259.887 347.131 259.123 347.131Z" fill="white"/>
</g>
</g>
<path d="M254.516 517.039C254.516 513.986 252.042 511.511 248.988 511.511C245.935 511.511 243.46 513.986 243.46 517.039C243.46 520.092 245.935 522.567 248.988 522.567C252.042 522.567 254.516 520.092 254.516 517.039Z" fill="#007BFF"/>
<path d="M254.516 517.039C254.516 513.986 252.042 511.511 248.988 511.511C245.935 511.511 243.46 513.986 243.46 517.039C243.46 520.092 245.935 522.567 248.988 522.567C252.042 522.567 254.516 520.092 254.516 517.039Z" stroke="#1A2E35" stroke-width="0.938667" stroke-miterlimit="10"/>
<path d="M251.791 519.841H246.187V514.237H251.791V519.841Z" fill="#007BFF" stroke="#1A2E35" stroke-width="0.704" stroke-miterlimit="10" stroke-linecap="round" stroke-linejoin="round"/>
<g opacity="0.600006">
<path opacity="0.600006" d="M251.791 519.841H246.187V514.237H251.791V519.841Z" fill="white" stroke="#1A2E35" stroke-width="0.704" stroke-miterlimit="10" stroke-linecap="round" stroke-linejoin="round"/>
</g>
<path d="M251.791 519.841H246.187V514.237H251.791V519.841Z" stroke="#1A2E35" stroke-width="0.704" stroke-miterlimit="10" stroke-linecap="round" stroke-linejoin="round"/>
<path d="M566.897 515.301V396.021C566.897 387.786 560.221 381.11 551.986 381.11H300.173C291.939 381.11 285.263 387.786 285.263 396.021V515.301C285.263 523.537 291.939 530.212 300.173 530.212H551.986C560.221 530.212 566.897 523.537 566.897 515.301Z" fill="#007BFF"/>
<path d="M566.897 515.301V396.021C566.897 387.786 560.221 381.11 551.986 381.11H300.173C291.939 381.11 285.263 387.786 285.263 396.021V515.301C285.263 523.537 291.939 530.212 300.173 530.212H551.986C560.221 530.212 566.897 523.537 566.897 515.301Z" stroke="#1A2E35" stroke-width="1.15867" stroke-miterlimit="10"/>
<path d="M551.888 387.737H300.272V523.585H551.888V387.737Z" fill="white"/>
<g opacity="0.399994">
<g opacity="0.399994">
<path opacity="0.399994" d="M551.888 415.02L365.72 523.585H551.888V415.02Z" fill="#007BFF"/>
</g>
</g>
<path d="M551.888 387.737H300.272V523.585H551.888V387.737Z" stroke="#1A2E35" stroke-width="0.869333" stroke-miterlimit="10"/>
<path d="M558.712 457.708C557.58 457.708 556.666 456.792 556.666 455.662C556.666 454.531 557.58 453.615 558.712 453.615C559.843 453.615 560.758 454.531 560.758 455.662C560.758 456.792 559.843 457.708 558.712 457.708Z" fill="#1A2E35"/>
<path d="M522.216 382.473H531.208C531.483 382.473 531.707 382.249 531.707 381.974V381.61C531.707 381.334 531.483 381.111 531.208 381.111H522.216C521.941 381.111 521.717 381.334 521.717 381.61V381.974C521.717 382.249 521.941 382.473 522.216 382.473Z" fill="#007BFF"/>
<path d="M522.216 382.473H531.208C531.483 382.473 531.707 382.249 531.707 381.974V381.61C531.707 381.334 531.483 381.111 531.208 381.111H522.216C521.941 381.111 521.717 381.334 521.717 381.61V381.974C521.717 382.249 521.941 382.473 522.216 382.473Z" stroke="#1A2E35" stroke-width="0.870667" stroke-miterlimit="10"/>
<path d="M490.428 382.473H507.674C508.048 382.473 508.352 382.167 508.352 381.791C508.352 381.415 508.048 381.111 507.674 381.111H490.428C490.052 381.111 489.747 381.415 489.747 381.791C489.747 382.167 490.052 382.473 490.428 382.473Z" fill="#007BFF"/>
<path d="M490.428 382.473H507.674C508.048 382.473 508.352 382.167 508.352 381.791C508.352 381.415 508.048 381.111 507.674 381.111H490.428C490.052 381.111 489.747 381.415 489.747 381.791C489.747 382.167 490.052 382.473 490.428 382.473Z" stroke="#1A2E35" stroke-width="0.870667" stroke-miterlimit="10"/>
<path d="M537.806 533.996C537.806 535.988 525.911 537.604 511.238 537.604C496.565 537.604 484.67 535.988 484.67 533.996C484.67 532.003 496.565 530.388 511.238 530.388C525.911 530.388 537.806 532.003 537.806 533.996Z" fill="#007BFF"/>
<path d="M488.374 480.56C488.374 510.903 512.41 535.499 512.41 535.499C512.41 535.499 536.446 510.903 536.446 480.56C536.446 450.219 512.41 425.621 512.41 425.621C512.41 425.621 488.374 450.219 488.374 480.56Z" fill="#1A2E35"/>
<path d="M512.41 535.499V425.621" stroke="white" stroke-width="0.984" stroke-miterlimit="10"/>
<path d="M512.41 464.677L498.953 452.929" stroke="white" stroke-width="0.984" stroke-miterlimit="10"/>
<path d="M512.624 482.835L529.285 458.696" stroke="white" stroke-width="0.984" stroke-miterlimit="10"/>
<path d="M512.41 493.301L492.545 475.571" stroke="white" stroke-width="0.984" stroke-miterlimit="10"/>
<path d="M512.624 507.4L532.276 489.884" stroke="white" stroke-width="0.984" stroke-miterlimit="10"/>
<path d="M512.624 519.576L497.244 507.4" stroke="white" stroke-width="0.984" stroke-miterlimit="10"/>
<path d="M471.723 520.057C483.396 533.22 503.285 534.643 503.285 534.643C503.285 534.643 504.249 514.727 492.577 501.564C480.904 488.401 461.015 486.977 461.015 486.977C461.015 486.977 460.049 506.895 471.723 520.057Z" fill="#1A2E35"/>
<path d="M503.285 534.643L461.014 486.978" stroke="white" stroke-width="0.984" stroke-miterlimit="10"/>
<path d="M476.039 503.921L465.682 504.002" stroke="white" stroke-width="0.984" stroke-miterlimit="10"/>
<path d="M483.117 511.715L481.06 494.835" stroke="white" stroke-width="0.984" stroke-miterlimit="10"/>
<path d="M487.051 516.337L471.613 516.289" stroke="white" stroke-width="0.984" stroke-miterlimit="10"/>
<path d="M492.568 522.371L494.354 507.212" stroke="white" stroke-width="0.984" stroke-miterlimit="10"/>
<path d="M497.251 527.654L485.895 528.288" stroke="white" stroke-width="0.984" stroke-miterlimit="10"/>
<path d="M532.966 501.103C520.713 513.727 520.777 533.667 520.777 533.667C520.777 533.667 540.71 533.14 552.965 520.519C565.219 507.896 565.155 487.956 565.155 487.956C565.155 487.956 545.221 488.48 532.966 501.103Z" fill="#1A2E35"/>
<path d="M520.777 533.667L565.155 487.956" stroke="white" stroke-width="0.984" stroke-miterlimit="10"/>
<path d="M549.38 504.203L548.527 493.88" stroke="white" stroke-width="0.984" stroke-miterlimit="10"/>
<path d="M542.137 511.844L558.817 508.532" stroke="white" stroke-width="0.984" stroke-miterlimit="10"/>
<path d="M537.82 516.112L536.716 500.712" stroke="white" stroke-width="0.984" stroke-miterlimit="10"/>
<path d="M532.215 522.063L547.465 522.713" stroke="white" stroke-width="0.984" stroke-miterlimit="10"/>
<path d="M527.297 527.128L525.817 515.852" stroke="white" stroke-width="0.984" stroke-miterlimit="10"/>
</svg>
