<svg width="185" height="18" viewBox="0 0 185 18" fill="none" xmlns="http://www.w3.org/2000/svg">
<path d="M0.54 17C0.46 17 0.388 16.976 0.324 16.928C0.276 16.864 0.252 16.792 0.252 16.712V0.487999C0.252 0.408 0.276 0.343999 0.324 0.295999C0.388 0.231999 0.46 0.199999 0.54 0.199999H6.396C7.532 0.199999 8.532 0.399999 9.396 0.8C10.26 1.2 10.924 1.776 11.388 2.528C11.868 3.264 12.108 4.128 12.108 5.12V12.08C12.108 13.072 11.868 13.944 11.388 14.696C10.924 15.432 10.26 16 9.396 16.4C8.532 16.8 7.532 17 6.396 17H0.54ZM3.036 14.48C3.036 14.56 3.076 14.6 3.156 14.6H6.516C7.364 14.6 8.036 14.336 8.532 13.808C9.044 13.264 9.308 12.544 9.324 11.648V5.576C9.324 4.664 9.068 3.944 8.556 3.416C8.044 2.872 7.356 2.6 6.492 2.6H3.156C3.076 2.6 3.036 2.64 3.036 2.72V14.48ZM26.4639 2.312C26.4639 2.392 26.4319 2.464 26.3679 2.528C26.3199 2.576 26.2559 2.6 26.1759 2.6H17.9919C17.9119 2.6 17.8719 2.64 17.8719 2.72V7.208C17.8719 7.288 17.9119 7.328 17.9919 7.328H23.4879C23.5679 7.328 23.6319 7.36 23.6799 7.424C23.7439 7.472 23.7759 7.536 23.7759 7.616V9.44C23.7759 9.52 23.7439 9.592 23.6799 9.656C23.6319 9.704 23.5679 9.728 23.4879 9.728H17.9919C17.9119 9.728 17.8719 9.768 17.8719 9.848V14.48C17.8719 14.56 17.9119 14.6 17.9919 14.6H26.1759C26.2559 14.6 26.3199 14.632 26.3679 14.696C26.4319 14.744 26.4639 14.808 26.4639 14.888V16.712C26.4639 16.792 26.4319 16.864 26.3679 16.928C26.3199 16.976 26.2559 17 26.1759 17H15.3759C15.2959 17 15.2239 16.976 15.1599 16.928C15.1119 16.864 15.0879 16.792 15.0879 16.712V0.487999C15.0879 0.408 15.1119 0.343999 15.1599 0.295999C15.2239 0.231999 15.2959 0.199999 15.3759 0.199999H26.1759C26.2559 0.199999 26.3199 0.231999 26.3679 0.295999C26.4319 0.343999 26.4639 0.408 26.4639 0.487999V2.312ZM33.846 17C33.686 17 33.582 16.92 33.534 16.76L28.494 0.535999L28.47 0.439999C28.47 0.279999 28.558 0.199999 28.734 0.199999H31.11C31.286 0.199999 31.398 0.279999 31.446 0.439999L35.046 12.968C35.062 13.016 35.086 13.04 35.118 13.04C35.15 13.04 35.174 13.016 35.19 12.968L38.766 0.439999C38.814 0.279999 38.926 0.199999 39.102 0.199999H41.43C41.526 0.199999 41.598 0.231999 41.646 0.295999C41.694 0.359999 41.702 0.439999 41.67 0.535999L36.558 16.76C36.51 16.92 36.406 17 36.246 17H33.846ZM44.4384 17C44.3584 17 44.2864 16.976 44.2224 16.928C44.1744 16.864 44.1504 16.792 44.1504 16.712V0.487999C44.1504 0.408 44.1744 0.343999 44.2224 0.295999C44.2864 0.231999 44.3584 0.199999 44.4384 0.199999H46.6464C46.7264 0.199999 46.7904 0.231999 46.8384 0.295999C46.9024 0.343999 46.9344 0.408 46.9344 0.487999V16.712C46.9344 16.792 46.9024 16.864 46.8384 16.928C46.7904 16.976 46.7264 17 46.6464 17H44.4384ZM56.0477 17.192C54.8477 17.192 53.7917 16.96 52.8797 16.496C51.9677 16.016 51.2637 15.352 50.7677 14.504C50.2717 13.656 50.0237 12.672 50.0237 11.552V5.624C50.0237 4.504 50.2717 3.52 50.7677 2.672C51.2637 1.824 51.9677 1.168 52.8797 0.704C53.7917 0.24 54.8477 0.0079999 56.0477 0.0079999C57.2317 0.0079999 58.2797 0.232 59.1917 0.68C60.1037 1.128 60.8077 1.76 61.3037 2.576C61.7997 3.392 62.0477 4.336 62.0477 5.408C62.0477 5.488 62.0157 5.56 61.9517 5.624C61.9037 5.672 61.8397 5.696 61.7597 5.696L59.5517 5.816C59.3597 5.816 59.2637 5.728 59.2637 5.552C59.2637 4.608 58.9677 3.848 58.3757 3.272C57.7997 2.696 57.0237 2.408 56.0477 2.408C55.0717 2.408 54.2877 2.696 53.6957 3.272C53.1037 3.848 52.8077 4.608 52.8077 5.552V11.672C52.8077 12.6 53.1037 13.352 53.6957 13.928C54.2877 14.504 55.0717 14.792 56.0477 14.792C57.0237 14.792 57.7997 14.512 58.3757 13.952C58.9677 13.376 59.2637 12.616 59.2637 11.672C59.2637 11.496 59.3597 11.408 59.5517 11.408L61.7597 11.504C61.8397 11.504 61.9037 11.528 61.9517 11.576C62.0157 11.624 62.0477 11.68 62.0477 11.744C62.0477 12.832 61.7997 13.792 61.3037 14.624C60.8077 15.44 60.1037 16.072 59.1917 16.52C58.2797 16.968 57.2317 17.192 56.0477 17.192ZM76.4093 2.312C76.4093 2.392 76.3773 2.464 76.3133 2.528C76.2653 2.576 76.2013 2.6 76.1213 2.6H67.9373C67.8573 2.6 67.8173 2.64 67.8173 2.72V7.208C67.8173 7.288 67.8573 7.328 67.9373 7.328H73.4333C73.5133 7.328 73.5773 7.36 73.6253 7.424C73.6893 7.472 73.7213 7.536 73.7213 7.616V9.44C73.7213 9.52 73.6893 9.592 73.6253 9.656C73.5773 9.704 73.5133 9.728 73.4333 9.728H67.9373C67.8573 9.728 67.8173 9.768 67.8173 9.848V14.48C67.8173 14.56 67.8573 14.6 67.9373 14.6H76.1213C76.2013 14.6 76.2653 14.632 76.3133 14.696C76.3773 14.744 76.4093 14.808 76.4093 14.888V16.712C76.4093 16.792 76.3773 16.864 76.3133 16.928C76.2653 16.976 76.2013 17 76.1213 17H65.3213C65.2413 17 65.1693 16.976 65.1053 16.928C65.0573 16.864 65.0333 16.792 65.0333 16.712V0.487999C65.0333 0.408 65.0573 0.343999 65.1053 0.295999C65.1693 0.231999 65.2413 0.199999 65.3213 0.199999H76.1213C76.2013 0.199999 76.2653 0.231999 76.3133 0.295999C76.3773 0.343999 76.4093 0.408 76.4093 0.487999V2.312Z" fill="#007BFF"/>
<path d="M90.0604 0.391999C90.1404 0.263999 90.2524 0.199999 90.3964 0.199999H92.6044C92.6844 0.199999 92.7484 0.231999 92.7964 0.295999C92.8604 0.343999 92.8924 0.408 92.8924 0.487999V16.712C92.8924 16.792 92.8604 16.864 92.7964 16.928C92.7484 16.976 92.6844 17 92.6044 17H90.3964C90.3164 17 90.2444 16.976 90.1804 16.928C90.1324 16.864 90.1084 16.792 90.1084 16.712V5.264C90.1084 5.216 90.0844 5.184 90.0364 5.168C90.0044 5.152 89.9804 5.168 89.9644 5.216L86.9644 9.824C86.8844 9.952 86.7724 10.016 86.6284 10.016H85.5244C85.3804 10.016 85.2684 9.952 85.1884 9.824L82.1644 5.24C82.1484 5.192 82.1164 5.176 82.0684 5.192C82.0364 5.208 82.0204 5.24 82.0204 5.288V16.712C82.0204 16.792 81.9884 16.864 81.9244 16.928C81.8764 16.976 81.8124 17 81.7324 17H79.5244C79.4444 17 79.3724 16.976 79.3084 16.928C79.2604 16.864 79.2364 16.792 79.2364 16.712V0.487999C79.2364 0.408 79.2604 0.343999 79.3084 0.295999C79.3724 0.231999 79.4444 0.199999 79.5244 0.199999H81.7324C81.8764 0.199999 81.9884 0.263999 82.0684 0.391999L85.9804 6.32C86.0124 6.352 86.0444 6.368 86.0764 6.368C86.1084 6.368 86.1324 6.352 86.1484 6.32L90.0604 0.391999ZM106.809 17C106.649 17 106.545 16.92 106.497 16.76L105.705 14.192C105.673 14.128 105.633 14.096 105.585 14.096H99.2486C99.2006 14.096 99.1606 14.128 99.1286 14.192L98.3366 16.76C98.2886 16.92 98.1846 17 98.0246 17H95.6246C95.5286 17 95.4566 16.976 95.4086 16.928C95.3606 16.864 95.3526 16.776 95.3846 16.664L100.593 0.439999C100.641 0.279999 100.745 0.199999 100.905 0.199999H103.905C104.065 0.199999 104.169 0.279999 104.217 0.439999L109.449 16.664C109.465 16.696 109.473 16.736 109.473 16.784C109.473 16.928 109.385 17 109.209 17H106.809ZM99.8726 11.768C99.8566 11.864 99.8886 11.912 99.9686 11.912H104.841C104.937 11.912 104.969 11.864 104.937 11.768L102.465 3.728C102.449 3.664 102.425 3.632 102.393 3.632C102.361 3.632 102.337 3.664 102.321 3.728L99.8726 11.768ZM121.723 0.487999C121.723 0.408 121.747 0.343999 121.795 0.295999C121.859 0.231999 121.931 0.199999 122.011 0.199999H124.219C124.299 0.199999 124.363 0.231999 124.411 0.295999C124.475 0.343999 124.507 0.408 124.507 0.487999V16.712C124.507 16.792 124.475 16.864 124.411 16.928C124.363 16.976 124.299 17 124.219 17H122.083C121.923 17 121.811 16.936 121.747 16.808L114.835 5.48C114.803 5.432 114.771 5.416 114.739 5.432C114.707 5.432 114.691 5.464 114.691 5.528L114.739 16.712C114.739 16.792 114.707 16.864 114.643 16.928C114.595 16.976 114.531 17 114.451 17H112.243C112.163 17 112.091 16.976 112.027 16.928C111.979 16.864 111.955 16.792 111.955 16.712V0.487999C111.955 0.408 111.979 0.343999 112.027 0.295999C112.091 0.231999 112.163 0.199999 112.243 0.199999H114.379C114.539 0.199999 114.651 0.263999 114.715 0.391999L121.603 11.72C121.635 11.768 121.667 11.792 121.699 11.792C121.731 11.776 121.747 11.736 121.747 11.672L121.723 0.487999ZM138.426 17C138.266 17 138.162 16.92 138.114 16.76L137.322 14.192C137.29 14.128 137.25 14.096 137.202 14.096H130.866C130.818 14.096 130.778 14.128 130.746 14.192L129.954 16.76C129.906 16.92 129.802 17 129.642 17H127.242C127.146 17 127.074 16.976 127.026 16.928C126.978 16.864 126.97 16.776 127.002 16.664L132.21 0.439999C132.258 0.279999 132.362 0.199999 132.522 0.199999H135.522C135.682 0.199999 135.786 0.279999 135.834 0.439999L141.066 16.664C141.082 16.696 141.09 16.736 141.09 16.784C141.09 16.928 141.002 17 140.826 17H138.426ZM131.49 11.768C131.474 11.864 131.506 11.912 131.586 11.912H136.458C136.554 11.912 136.586 11.864 136.554 11.768L134.082 3.728C134.066 3.664 134.042 3.632 134.01 3.632C133.978 3.632 133.954 3.664 133.938 3.728L131.49 11.768ZM148.766 17.192C147.566 17.192 146.51 16.96 145.598 16.496C144.686 16.016 143.982 15.344 143.486 14.48C142.99 13.616 142.742 12.624 142.742 11.504V5.696C142.742 4.56 142.99 3.568 143.486 2.72C143.982 1.856 144.686 1.192 145.598 0.727999C146.51 0.248 147.566 0.0079999 148.766 0.0079999C149.95 0.0079999 150.99 0.24 151.886 0.704C152.798 1.168 153.502 1.8 153.998 2.6C154.494 3.4 154.742 4.304 154.742 5.312V5.504C154.742 5.584 154.71 5.656 154.646 5.72C154.598 5.768 154.534 5.792 154.454 5.792H152.27C152.19 5.792 152.118 5.768 152.054 5.72C152.006 5.656 151.982 5.584 151.982 5.504V5.384C151.982 4.52 151.686 3.808 151.094 3.248C150.518 2.688 149.742 2.408 148.766 2.408C147.79 2.408 147.006 2.704 146.414 3.296C145.822 3.872 145.526 4.64 145.526 5.6V11.6C145.526 12.56 145.838 13.336 146.462 13.928C147.086 14.504 147.894 14.792 148.886 14.792C149.846 14.792 150.598 14.544 151.142 14.048C151.702 13.536 151.982 12.84 151.982 11.96V10.472C151.982 10.392 151.942 10.352 151.862 10.352H148.91C148.83 10.352 148.758 10.328 148.694 10.28C148.646 10.216 148.622 10.144 148.622 10.064V8.288C148.622 8.208 148.646 8.144 148.694 8.096C148.758 8.032 148.83 8 148.91 8H154.454C154.534 8 154.598 8.032 154.646 8.096C154.71 8.144 154.742 8.208 154.742 8.288V11.36C154.742 13.2 154.198 14.632 153.11 15.656C152.038 16.68 150.59 17.192 148.766 17.192ZM169.245 2.312C169.245 2.392 169.213 2.464 169.149 2.528C169.101 2.576 169.037 2.6 168.957 2.6H160.773C160.693 2.6 160.653 2.64 160.653 2.72V7.208C160.653 7.288 160.693 7.328 160.773 7.328H166.269C166.349 7.328 166.413 7.36 166.461 7.424C166.525 7.472 166.557 7.536 166.557 7.616V9.44C166.557 9.52 166.525 9.592 166.461 9.656C166.413 9.704 166.349 9.728 166.269 9.728H160.773C160.693 9.728 160.653 9.768 160.653 9.848V14.48C160.653 14.56 160.693 14.6 160.773 14.6H168.957C169.037 14.6 169.101 14.632 169.149 14.696C169.213 14.744 169.245 14.808 169.245 14.888V16.712C169.245 16.792 169.213 16.864 169.149 16.928C169.101 16.976 169.037 17 168.957 17H158.157C158.077 17 158.005 16.976 157.941 16.928C157.893 16.864 157.869 16.792 157.869 16.712V0.487999C157.869 0.408 157.893 0.343999 157.941 0.295999C158.005 0.231999 158.077 0.199999 158.157 0.199999H168.957C169.037 0.199999 169.101 0.231999 169.149 0.295999C169.213 0.343999 169.245 0.408 169.245 0.487999V2.312ZM181.504 17C181.344 17 181.232 16.928 181.168 16.784L178 9.872C177.968 9.808 177.92 9.776 177.856 9.776H174.976C174.896 9.776 174.856 9.816 174.856 9.896V16.712C174.856 16.792 174.824 16.864 174.76 16.928C174.712 16.976 174.648 17 174.568 17H172.36C172.28 17 172.208 16.976 172.144 16.928C172.096 16.864 172.072 16.792 172.072 16.712V0.487999C172.072 0.408 172.096 0.343999 172.144 0.295999C172.208 0.231999 172.28 0.199999 172.36 0.199999H178.96C179.936 0.199999 180.8 0.407999 181.552 0.823999C182.304 1.224 182.888 1.8 183.304 2.552C183.72 3.288 183.928 4.136 183.928 5.096C183.928 6.2 183.64 7.144 183.064 7.928C182.504 8.696 181.72 9.232 180.712 9.536C180.68 9.536 180.656 9.552 180.64 9.584C180.624 9.616 180.624 9.648 180.64 9.68L184.024 16.664C184.056 16.728 184.072 16.776 184.072 16.808C184.072 16.936 183.984 17 183.808 17H181.504ZM174.976 2.6C174.896 2.6 174.856 2.64 174.856 2.72V7.496C174.856 7.576 174.896 7.616 174.976 7.616H178.576C179.344 7.616 179.96 7.392 180.424 6.944C180.904 6.48 181.144 5.872 181.144 5.12C181.144 4.368 180.904 3.76 180.424 3.296C179.96 2.832 179.344 2.6 178.576 2.6H174.976Z" fill="black"/>
</svg>
